<svg width="304" height="303" viewBox="0 0 304 303" fill="none" xmlns="http://www.w3.org/2000/svg">
<path d="M265.567 238.622H273.566C290.002 238.622 303.373 225.251 303.373 208.815C303.373 192.379 290.003 179.008 273.566 179.008H268.371V163.358C268.371 160.907 266.386 158.922 263.935 158.922H248.219C251.097 148.244 252.559 137.223 252.559 126.073C252.559 93.6694 240.281 62.8792 217.988 39.3742C216.301 37.5956 213.494 37.5223 211.717 39.2085C209.939 40.8948 209.865 43.7025 211.551 45.4799C232.274 67.3294 243.687 95.9512 243.687 126.074C243.687 137.248 242.11 148.281 239.005 158.922H218.641C222.4 148.408 224.309 137.389 224.309 126.074C224.309 72.1688 180.455 28.3143 126.55 28.3143C72.6462 28.3143 28.7904 72.1694 28.7904 126.074C28.7904 136.936 30.5648 147.616 34.0646 157.815C34.8601 160.133 37.3857 161.368 39.6995 160.571C42.0169 159.776 43.2513 157.254 42.4558 154.936C39.2748 145.665 37.6625 135.954 37.6625 126.074C37.6625 77.0609 77.537 37.1863 126.55 37.1863C175.562 37.1863 215.437 77.0609 215.437 126.074C215.437 137.441 213.323 148.476 209.159 158.922H127.722C125.271 158.922 123.285 160.908 123.285 163.358V214.896C92.8768 213.769 64.8346 196.966 49.5268 170.466C48.3013 168.345 45.5876 167.619 43.4666 168.845C41.3456 170.07 40.6192 172.783 41.8448 174.905C58.8022 204.259 89.5658 222.678 123.354 223.78C123.684 230.641 125.242 237.186 127.812 243.2C127.39 243.204 126.966 243.211 126.55 243.211C61.9601 243.211 9.41209 190.663 9.41209 126.074C9.41209 61.4839 61.9601 8.93651 126.55 8.93651C153.082 8.93651 178.103 17.5862 198.907 33.9504C200.832 35.4651 203.622 35.1321 205.136 33.2063C206.651 31.2805 206.318 28.4917 204.392 26.9775C182.009 9.37124 155.091 0.0644531 126.55 0.0644531C57.0674 0.0644531 0.540039 56.5925 0.540039 126.074C0.540039 195.555 57.0674 252.083 126.55 252.083C128.486 252.083 130.478 252.031 132.493 251.936C136.905 258.678 142.712 264.428 149.505 268.768H119.383C116.469 268.768 113.808 270.244 112.265 272.716C110.723 275.189 110.565 278.227 111.845 280.844L112.02 281.201C118.463 294.375 132.103 302.888 146.767 302.888H189.703C192.154 302.888 194.139 300.902 194.139 298.452C194.139 296.001 192.154 294.016 189.703 294.016H146.767C135.591 294.016 125.188 287.601 120.157 277.64H271.499C266.467 287.601 256.064 294.016 244.888 294.016H207.44C204.99 294.016 203.004 296.001 203.004 298.452C203.004 300.902 204.99 302.888 207.44 302.888H244.888C259.554 302.888 273.193 294.375 279.64 281.194L279.81 280.845C281.09 278.228 280.934 275.189 279.391 272.717C277.849 270.244 275.187 268.768 272.273 268.768H242.151C253.077 261.788 261.455 251.164 265.567 238.622ZM273.566 187.881C285.109 187.881 294.501 197.272 294.501 208.816C294.501 220.359 285.109 229.751 273.566 229.751H267.698C268.14 226.905 268.371 223.991 268.371 221.024V187.881L273.566 187.881ZM211.754 268.768H179.903C153.576 268.768 132.158 247.35 132.158 221.023V167.794H259.499V221.023C259.499 247.35 238.08 268.768 211.754 268.768Z" fill="#E2B024"/>
<path d="M126.55 61.6223C129.001 61.6223 130.986 59.6367 130.986 57.1863V50.9155C130.986 48.4651 129.001 46.4795 126.55 46.4795C124.1 46.4795 122.114 48.4651 122.114 50.9155V57.1869C122.114 59.6367 124.1 61.6223 126.55 61.6223Z" fill="#E2B024"/>
<path d="M178.396 80.501L182.831 76.0667C184.563 74.3337 184.563 71.5254 182.831 69.793C181.098 68.0612 178.289 68.0612 176.557 69.793L172.123 74.2273C170.39 75.9603 170.39 78.7686 172.123 80.501C172.989 81.3669 174.125 81.7999 175.26 81.7999C176.395 81.7999 177.53 81.3669 178.396 80.501Z" fill="#E2B024"/>
<path d="M201.707 130.511C204.158 130.511 206.143 128.525 206.143 126.075C206.143 123.624 204.158 121.639 201.707 121.639H195.436C192.986 121.639 191 123.624 191 126.075C191 128.525 192.986 130.511 195.436 130.511H201.707Z" fill="#E2B024"/>
<path d="M70.269 182.355C72.0026 184.088 74.8103 184.087 76.5428 182.355L80.977 177.921C82.7094 176.188 82.7094 173.38 80.977 171.648C79.244 169.916 76.4357 169.916 74.7033 171.648L70.269 176.082C68.5366 177.814 68.5366 180.622 70.269 182.355Z" fill="#E2B024"/>
<path d="M57.6619 130.511C60.1123 130.511 62.0979 128.525 62.0979 126.075C62.0979 123.624 60.1123 121.639 57.6619 121.639H51.3911C48.9406 121.639 46.9551 123.624 46.9551 126.075C46.9551 128.525 48.9406 130.511 51.3911 130.511H57.6619Z" fill="#E2B024"/>
<path d="M74.7027 80.501C75.5692 81.3669 76.7048 81.7999 77.8399 81.7999C78.9749 81.7999 80.1105 81.3669 80.977 80.501C82.7094 78.768 82.7094 75.9597 80.977 74.2273L76.5428 69.793C74.8098 68.0612 72.0015 68.0612 70.269 69.793C68.5366 71.526 68.5366 74.3343 70.269 76.0667L74.7027 80.501Z" fill="#E2B024"/>
<path d="M122.114 127.898C122.114 129.755 123.272 131.416 125.015 132.059C125.516 132.244 126.035 132.334 126.549 132.334C127.822 132.334 129.063 131.785 129.923 130.779L145.954 112.012C147.545 110.149 147.324 107.349 145.462 105.758C143.599 104.168 140.798 104.388 139.208 106.25L130.987 115.874V85.9175C130.987 83.467 129.001 81.4814 126.551 81.4814C124.1 81.4814 122.115 83.467 122.115 85.9175V127.898H122.114Z" fill="#E2B024"/>
</svg>
